<?xml version="1.0" encoding="UTF-8"?>
<svg version="1.1" xmlns="http://www.w3.org/2000/svg" width="2048" height="2048">
<path d="M0 0 C675.84 0 1351.68 0 2048 0 C2048 675.84 2048 1351.68 2048 2048 C1372.16 2048 696.32 2048 0 2048 C0 1372.16 0 696.32 0 0 Z " fill="#FEFEFE" transform="translate(0,0)"/>
<path d="M0 0 C3.90938105 0.02079294 7.81878956 0.02966375 11.72821045 0.03967285 C19.34156455 0.06085425 26.95478616 0.09479634 34.5680542 0.1373291 C28.36149464 12.75355628 28.36149464 12.75355628 24.8961792 18.3795166 C23.91391357 19.98439941 23.91391357 19.98439941 22.9118042 21.6217041 C22.2208667 22.74061035 21.5299292 23.8595166 20.8180542 25.0123291 C19.68898292 26.85381438 18.56184303 28.69647225 17.43487549 30.53924561 C16.65600229 31.81278867 15.87661994 33.08602049 15.09674072 34.35894775 C10.87351349 41.25694387 6.71999672 48.19628247 2.5680542 55.1373291 C-1.93994418 62.67062994 -6.45790223 70.19715515 -11.02960205 77.6920166 C-11.40348557 78.30502625 -11.77736908 78.91803589 -12.1625824 79.54962158 C-12.90679676 80.76969557 -13.65101366 81.98976801 -14.39523315 83.20983887 C-19.48240395 91.55178773 -24.5266298 99.9000314 -29.24786377 108.45568848 C-33.60758973 116.33159595 -38.26886917 124.0401797 -42.98858643 131.70495605 C-43.99287364 133.39739745 -44.9412318 135.12376256 -45.84405518 136.87243652 C-49.90215616 144.48137587 -49.90215616 144.48137587 -54.2522583 145.89123535 C-55.68039514 146.19454759 -57.11635892 146.4625896 -58.5569458 146.6998291 C-81.49609763 151.8327013 -102.15636772 164.47476169 -119.4319458 180.1373291 C-120.31237549 180.89787598 -121.19280518 181.65842285 -122.09991455 182.4420166 C-140.69211817 198.64173511 -156.03931845 219.96462777 -164.3850708 243.25842285 C-165.30814126 245.79686662 -166.34289971 248.19693719 -167.4944458 250.6373291 C-182.80136512 284.64584742 -180.43237781 328.0594779 -170.4319458 363.1373291 C-169.98721924 364.89883301 -169.98721924 364.89883301 -169.5335083 366.69592285 C-167.18097436 375.71396963 -163.68051917 383.88801582 -159.4319458 392.1373291 C-159.10065674 392.78459961 -158.76936768 393.43187012 -158.42803955 394.09875488 C-150.75730202 408.88242442 -140.95792315 422.1192739 -129.4319458 434.1373291 C-128.97803467 434.62765625 -128.52412354 435.1179834 -128.05645752 435.62316895 C-100.57191769 465.27730097 -65.08273738 476.95616554 -26.4319458 484.1373291 C-25.6162915 484.28943848 -24.80063721 484.44154785 -23.96026611 484.5982666 C-17.4718317 485.79804688 -10.97210326 486.90429426 -4.45147705 487.91467285 C-3.60504639 488.04599609 -2.75861572 488.17731934 -1.88653564 488.31262207 C-0.2663945 488.56185038 1.35433886 488.80727413 2.97576904 489.04797363 C3.71907471 489.16125 4.46238037 489.27452637 5.22821045 489.39123535 C5.87411133 489.48735107 6.52001221 489.5834668 7.18548584 489.68249512 C9.96756925 490.21359681 12.69228359 490.92945882 15.43647766 491.62666321 C18.82860863 492.43932255 22.25108179 493.0282154 25.68914795 493.60998535 C26.43334488 493.73796005 27.17754181 493.86593475 27.94429016 493.99778748 C29.50620535 494.26559612 31.06837916 494.53190047 32.63079834 494.79675293 C34.99670381 495.19832689 37.36150872 495.60595735 39.72625732 496.01428223 C48.63441738 497.5665259 48.63441738 497.5665259 57.60321045 498.69592285 C60.38087304 499.00516016 62.81659698 499.37886733 65.50408936 500.01281738 C71.48974285 501.37127193 77.51990673 502.46417414 83.55633545 503.57092285 C84.82414856 503.80468628 86.09196167 504.03844971 87.39819336 504.27929688 C90.13245963 504.78340307 92.86691818 505.28644829 95.60153198 505.78866577 C99.19895481 506.44936299 102.796048 507.11183429 106.39302731 507.77494144 C121.03371679 510.47394314 135.67666141 513.16038158 150.32312965 515.82784843 C152.3551584 516.19804903 154.38711851 516.56862393 156.41905212 516.93934631 C157.08000287 517.05993125 157.74095362 517.18051619 158.42193317 517.30475521 C159.40438149 517.48400209 159.40438149 517.48400209 160.40667725 517.66687012 C165.41012043 518.57970134 170.41426667 519.48853 175.41888428 520.39489746 C186.56003925 522.42068486 197.68151993 524.51656932 208.7711792 526.8092041 C209.7418483 527.00880234 210.7125174 527.20840057 211.71260071 527.41404724 C219.8568259 529.12397255 227.72800756 531.32743309 235.5680542 534.1373291 C236.7755835 534.56852051 236.7755835 534.56852051 238.00750732 535.00842285 C262.38472432 543.80978509 284.16548805 555.00929762 304.5680542 571.1373291 C305.42528076 571.80248535 306.28250732 572.4676416 307.16571045 573.1529541 C342.73670356 601.08195642 371.39980999 639.32799875 386.5680542 682.1373291 C386.83924072 682.87499512 387.11042725 683.61266113 387.38983154 684.37268066 C395.91333917 707.66173045 401.95623998 732.63087579 401.79852295 757.51623535 C401.79783562 759.33803566 401.79783562 759.33803566 401.7971344 761.19664001 C401.79413832 763.74190255 401.78633265 766.2871637 401.77386475 768.83239746 C401.75558239 772.69387423 401.75335582 776.55511033 401.75360107 780.41662598 C401.74868502 782.90816447 401.74285632 785.39970137 401.73602295 787.89123535 C401.73491013 789.0270253 401.7337973 790.16281525 401.73265076 791.33302307 C401.66444418 803.03973689 400.80785108 814.41469133 398.4430542 825.8873291 C398.22423584 826.95443115 398.00541748 828.0215332 397.77996826 829.12097168 C393.60035449 848.90457348 387.82657924 867.67941088 379.5680542 886.1373291 C379.15571533 887.07286621 378.74337646 888.00840332 378.31854248 888.97229004 C361.30099105 927.27316048 334.03870856 963.59525553 300.5680542 989.1373291 C299.61543701 989.90689941 298.66281982 990.67646973 297.68133545 991.46936035 C276.43856877 1008.39427483 252.47321576 1020.86167414 227.05780029 1030.21643066 C224.94332845 1030.99852399 222.84195272 1031.80490905 220.74383545 1032.6295166 C207.16645781 1037.80338122 192.80941211 1040.625076 178.5680542 1043.3248291 C177.77656982 1043.47959717 176.98508545 1043.63436523 176.1696167 1043.79382324 C159.76909907 1046.76706377 143.1682696 1047.43542238 126.54136658 1047.37783813 C124.62170887 1047.37871312 122.7020514 1047.38046945 120.78239518 1047.38301647 C115.57368451 1047.38743654 110.36505787 1047.379561 105.15635788 1047.36946034 C99.51454771 1047.36075003 93.87274153 1047.36375132 88.23092651 1047.36526489 C78.47807396 1047.36630899 68.72524835 1047.36008235 58.97240257 1047.34878922 C44.87176659 1047.33247234 30.77114352 1047.3273199 16.67049912 1047.32481323 C-6.21188374 1047.3204458 -29.09424907 1047.30717993 -51.97662354 1047.28820801 C-74.19276863 1047.26980985 -96.40890986 1047.25569087 -118.62506104 1047.24719238 C-120.02449634 1047.2466511 -121.42393164 1047.24610969 -122.82336694 1047.24556816 C-133.65988454 1047.24139643 -144.49640223 1047.23749515 -155.33291996 1047.23365903 C-208.36594173 1047.21482257 -261.39892759 1047.17457866 -314.4319458 1047.1373291 C-314.4319458 953.7473291 -314.4319458 860.3573291 -314.4319458 764.1373291 C-268.2319458 764.1373291 -222.0319458 764.1373291 -174.4319458 764.1373291 C-174.4319458 811.6573291 -174.4319458 859.1773291 -174.4319458 908.1373291 C-118.98953648 908.01765458 -118.98953648 908.01765458 -63.54718018 907.8795166 C-56.06500283 907.85950996 -48.58282518 907.83962574 -41.10064697 907.81994629 C-40.16293762 907.81747485 -39.22522827 907.81500341 -38.25910348 907.81245708 C-23.14019185 907.77278783 -8.02127281 907.74002353 7.09766037 907.70982929 C22.62525543 907.67866447 38.15281911 907.64003372 53.68037885 907.59453905 C63.25400891 907.56672227 72.82761613 907.54465986 82.40127563 907.53006659 C88.97515901 907.51948685 95.54899807 907.50162496 102.12284798 907.47816207 C105.90994197 907.46485659 109.69697411 907.45464142 113.48409271 907.45311546 C117.60400259 907.45137077 121.72371311 907.43422902 125.84358215 907.415802 C127.0216473 907.41773674 128.19971244 907.41967147 129.41347653 907.42166483 C167.12323483 907.17112291 200.49046522 893.17735554 227.07196045 866.6373291 C249.4535729 842.97120672 260.17523276 809.77583292 260.01409912 777.71936035 C260.00556015 775.13912714 260.03453598 772.56109748 260.06610107 769.9810791 C260.11123024 759.0598867 258.69909079 749.60719906 255.5680542 739.1373291 C255.00452133 736.99176679 254.44184669 734.8459786 253.8805542 732.6998291 C245.79243502 707.23489138 227.23157528 686.46438653 203.871521 673.97131348 C179.96075207 661.70366698 153.0768975 658.26641599 126.89276123 653.74401855 C124.21217172 653.25486707 121.54376024 652.73421661 118.87322998 652.19421387 C113.40416439 651.09301487 107.91898987 650.09583871 102.4274292 649.1138916 C100.86221527 648.83271988 100.86221527 648.83271988 99.26538086 648.54586792 C95.94977058 647.95042966 92.63392448 647.35631755 89.3180542 646.7623291 C81.7807398 645.41028403 74.24367397 644.05686097 66.70697021 642.70141602 C64.61837018 642.32607881 62.52966599 641.95132069 60.44085693 641.57714844 C57.46731264 641.04427511 54.49420346 640.50903266 51.5211792 639.9732666 C50.64669128 639.81709869 49.77220337 639.66093079 48.87121582 639.50003052 C44.11442342 638.64017676 39.39962523 637.67025728 34.68545532 636.60223389 C31.48353407 635.89920766 28.26249797 635.33457068 25.03289795 634.77404785 C23.96059181 634.58717659 23.96059181 634.58717659 22.86662292 634.39653015 C15.54697809 633.12445265 8.22294986 631.87745849 0.8999176 630.62506104 C-76.56422157 617.36766459 -153.44626035 603.81977276 -213.29522705 548.12561035 C-215.19379241 546.35893801 -217.1364737 544.68242287 -219.1194458 543.0123291 C-228.4992209 534.83852509 -237.5640279 525.77854141 -245.4319458 516.1373291 C-245.84976318 515.63330566 -246.26758057 515.12928223 -246.69805908 514.60998535 C-269.60459531 486.92438761 -288.23332344 455.4446712 -299.69659424 421.29650879 C-300.42092832 419.16967924 -301.18982526 417.06416932 -301.9710083 414.9576416 C-305.20585669 406.04866922 -307.52860247 397.01789514 -309.5569458 387.7623291 C-309.78647949 386.7318042 -310.01601318 385.7012793 -310.25250244 384.63952637 C-311.0543955 380.8175018 -311.76103751 376.98398067 -312.4319458 373.1373291 C-312.59957428 372.19276855 -312.76720276 371.24820801 -312.93991089 370.27502441 C-316.13608871 351.79289528 -317.03651668 333.64689707 -316.88146973 314.94567871 C-316.86539148 312.19327869 -316.87559136 309.44121502 -316.88519478 306.68880463 C-316.93172189 289.98329581 -316.10382759 273.64649653 -313.4319458 257.1373291 C-313.13405151 255.29606445 -313.13405151 255.29606445 -312.83013916 253.41760254 C-312.33649564 250.64138896 -311.78573555 247.89143489 -311.1819458 245.1373291 C-310.97360107 244.16642334 -310.76525635 243.19551758 -310.55059814 242.19519043 C-301.52868425 201.48535781 -284.98806468 162.90411093 -260.4319458 129.1373291 C-259.93662354 128.45267578 -259.44130127 127.76802246 -258.93096924 127.06262207 C-253.4987776 119.58689168 -247.98099286 112.30357505 -241.66241455 105.5435791 C-239.80898343 103.54408073 -238.02630117 101.51163995 -236.24835205 99.44592285 C-226.03615138 87.74094955 -214.81865464 76.52944899 -202.4319458 67.1373291 C-201.14955088 66.12836593 -199.86840349 65.11781606 -198.5881958 64.1060791 C-156.29730984 30.92271665 -105.80720218 9.10198995 -52.4319458 2.1373291 C-51.80201721 2.04912903 -51.17208862 1.96092896 -50.52307129 1.87005615 C-33.74452255 -0.41989426 -16.89243606 -0.09961803 0 0 Z " fill="#000000" transform="translate(980.4319458007813,500.8626708984375)"/>
<path d="M0 0 C115.17 0 230.34 0 349 0 C349 107.91 349 215.82 349 327 C302.47 327 255.94 327 208 327 C208 265.95 208 204.9 208 142 C166.75 142 125.5 142 83 142 C81.02 138.37 79.04 134.74 77 131 C75.63359926 128.62795061 74.25366899 126.26360168 72.85546875 123.91015625 C72.30533867 122.98293007 72.30533867 122.98293007 71.74409485 122.03697205 C70.56071978 120.04419001 69.37426864 118.05326261 68.1875 116.0625 C67.34372861 114.64389293 66.49997901 113.2252729 65.65625 111.80664062 C59.64170868 101.70486248 53.55301093 91.6497929 47.43432617 81.61083984 C40.71854118 70.58143898 34.13041961 59.47721633 27.55311584 48.36483765 C19.9206137 35.47290024 12.23702327 22.63023116 4.18164062 9.99609375 C3.63572266 9.12597656 3.08980469 8.25585938 2.52734375 7.359375 C1.79632446 6.20646973 1.79632446 6.20646973 1.05053711 5.03027344 C0 3 0 3 0 0 Z " fill="#010202" transform="translate(1032,500)"/>
<path d="M0 0 C3.03043412 2.6400101 4.68733929 5.75742637 6.625 9.25 C7.34635848 10.53458379 8.06905637 11.81841619 8.79296875 13.1015625 C9.16212402 13.75672852 9.5312793 14.41189453 9.91162109 15.08691406 C14.35776498 22.9020741 19.11421896 30.54695466 23.7890625 38.2265625 C25.21379361 40.56755511 26.63823369 42.90872458 28.0625 45.25 C28.42710327 45.84922272 28.79170654 46.44844543 29.1673584 47.06582642 C35.24602816 57.06076102 41.22997874 67.10798196 47.17651367 77.18212891 C52.09434655 85.50236273 57.09888802 93.76631394 62.14013672 102.01220703 C65.41502078 107.3754501 68.64601247 112.75961992 71.8125 118.1875 C77.39871815 127.76047882 83.18264277 137.21368498 88.94340515 146.68211365 C89.48382195 147.57036583 89.48382195 147.57036583 90.03515625 148.4765625 C90.38975418 149.05934464 90.74435211 149.64212677 91.10969543 150.24256897 C93.58895526 154.31908904 96.0515433 158.40492038 98.5 162.5 C102.7367574 169.58320023 107.02550573 176.63464314 111.3125 183.6875 C116.23043449 191.77850113 121.13828503 199.87503529 126 208 C130.78661282 215.99489209 135.60467171 223.97048895 140.4375 231.9375 C140.97792435 232.82897736 140.97792435 232.82897736 141.52926636 233.73846436 C145.31170502 239.97565541 149.11260559 246.19954564 152.9765625 252.38671875 C153.58443604 253.36068604 154.19230957 254.33465332 154.81860352 255.33813477 C155.95554397 257.15504297 157.09647105 258.96946446 158.24194336 260.78100586 C158.74089111 261.57772705 159.23983887 262.37444824 159.75390625 263.1953125 C160.19033447 263.88641113 160.6267627 264.57750977 161.07641602 265.28955078 C162 267 162 267 162 269 C55.74 269 -50.52 269 -160 269 C-158.40403427 264.21210281 -156.98453696 261.00815257 -154.40234375 256.81640625 C-154.05244888 256.24442001 -153.70255402 255.67243378 -153.34205627 255.08311462 C-152.21269147 253.23947579 -151.07512661 251.40104985 -149.9375 249.5625 C-149.15039073 248.2803473 -148.36393542 246.99779291 -147.578125 245.71484375 C-146.05035339 243.22137253 -144.5201501 240.72942511 -142.98779297 238.23876953 C-140.79971652 234.67367224 -138.64213188 231.09284297 -136.5 227.5 C-133.80295692 222.98942794 -131.08532841 218.49233312 -128.3515625 214.00390625 C-119.67474893 199.75595662 -111.08116202 185.46304734 -102.59619141 171.09985352 C-98.40048572 164.00313923 -94.1463066 156.95003611 -89.8112793 149.93725586 C-87.31878803 145.89531456 -84.87391116 141.82590644 -82.4375 137.75 C-81.40889141 136.03252978 -80.38024362 134.31508303 -79.3515625 132.59765625 C-78.81305664 131.69805176 -78.27455078 130.79844727 -77.71972656 129.87158203 C-74.58751073 124.64143969 -71.44955163 119.4147427 -68.3125 114.1875 C-67.03122639 112.0520975 -65.74997573 109.91668123 -64.46875 107.78125 C-58.46875 97.78125 -58.46875 97.78125 -57.36303711 95.93847656 C-56.66583839 94.77642469 -55.96873465 93.61431583 -55.27172852 92.45214844 C-53.26549196 89.10733144 -51.25676026 85.76403118 -49.24609375 82.421875 C-44.02527144 73.738914 -38.83284441 65.04042396 -33.6875 56.3125 C-27.07729411 45.10119019 -20.38234589 33.9414621 -13.67578125 22.78759766 C-11.36470888 18.94321765 -9.05715754 15.09673022 -6.75 11.25 C-4.5 7.5 -2.25 3.75 0 0 Z " fill="#F80001" transform="translate(1023,558)"/>
<path d="M0 0 C0.66 0 1.32 0 2 0 C-0.21454613 5.53636532 -3.14467756 10.76524219 -6 16 C100.59 15.67 207.18 15.34 317 15 C317 15.99 317 16.98 317 18 C209.75 18 102.5 18 -8 18 C-8 16.02 -8 14.04 -8 12 C-7.34 12 -6.68 12 -6 12 C-5.855625 11.401875 -5.71125 10.80375 -5.5625 10.1875 C-5.1127561 8.43849596 -4.57107659 6.71322977 -4 5 C-3.34 5 -2.68 5 -2 5 C-2 4.01 -2 3.02 -2 2 C-1.34 2 -0.68 2 0 2 C0 1.34 0 0.68 0 0 Z " fill="#F3ACAB" transform="translate(869,811)"/>
<path d="M0 0 C9 10.66666667 9 10.66666667 9 15 C-97.26 15 -203.52 15 -313 15 C-312.34 13.02 -311.68 11.04 -311 9 C-310.34 8.67 -309.68 8.34 -309 8 C-309.66 9.98 -310.32 11.96 -311 14 C-206.39 14 -101.78 14 6 14 C4.02 10.04 4.02 10.04 2 6 C2 5.34 2 4.68 2 4 C1.34 4 0.68 4 0 4 C0 2.68 0 1.36 0 0 Z " fill="#BA1918" transform="translate(1176,812)"/>
<path d="M0 0 C0.33 1.32 0.66 2.64 1 4 C0.34 4 -0.32 4 -1 4 C-1.33 6.64 -1.66 9.28 -2 12 C100.3 11.67 202.6 11.34 308 11 C308.66 9.68 309.32 8.36 310 7 C312 10 312 10 312 13 C207.39 13 102.78 13 -5 13 C-2 3 -2 3 0 0 Z " fill="#D80B0B" transform="translate(870,813)"/>
<path d="M0 0 C3.155543 3.75358002 5.73295084 7.69973799 8.1953125 11.92578125 C8.58462448 12.5862294 8.97393646 13.24667755 9.37504578 13.92713928 C10.20219872 15.33083739 11.02771819 16.73549916 11.85171509 18.14105225 C13.9824804 21.77483877 16.12581462 25.40118708 18.26953125 29.02734375 C18.6856517 29.73163513 19.10177216 30.43592651 19.53050232 31.16156006 C22.55729197 36.27544025 25.64006541 41.34989943 28.8125 46.375 C29.19204834 46.97755615 29.57159668 47.5801123 29.96264648 48.20092773 C30.97315994 49.80184324 31.98648263 51.40098455 33 53 C34.23781094 54.952881 35.468034 56.91061134 36.6875 58.875 C37.16574219 59.63554688 37.64398437 60.39609375 38.13671875 61.1796875 C38.56404297 62.08074219 38.56404297 62.08074219 39 63 C38.67 63.66 38.34 64.32 38 65 C37.67 64.01 37.34 63.02 37 62 C36.34 62 35.68 62 35 62 C35 61.34 35 60.68 35 60 C34.34 60 33.68 60 33 60 C32.34 57.36 31.68 54.72 31 52 C29.68 51.67 28.36 51.34 27 51 C25.40234375 48.7421875 25.40234375 48.7421875 23.9375 45.875 C23.42703125 44.88113281 22.9165625 43.88726563 22.390625 42.86328125 C17.93982808 33.6991404 17.93982808 33.6991404 17 29 C16.01 29 15.02 29 14 29 C14 28.34 14 27.68 14 27 C13.34 27 12.68 27 12 27 C11.49339844 25.82630859 11.49339844 25.82630859 10.9765625 24.62890625 C10.53054688 23.61699219 10.08453125 22.60507812 9.625 21.5625 C8.96371094 20.04849609 8.96371094 20.04849609 8.2890625 18.50390625 C7.24923714 15.87856453 7.24923714 15.87856453 5 15 C3.96484375 13.1875 3.96484375 13.1875 2.9375 11 C1.75531476 8.30092276 1.75531476 8.30092276 0 6 C-0.04080783 4.00041636 -0.04254356 1.99954746 0 0 Z " fill="#D01E1E" transform="translate(1130,736)"/>
<path d="M0 0 C1 2 1 2 0.51171875 4.05859375 C0.23972656 4.84363281 -0.03226563 5.62867188 -0.3125 6.4375 C-0.57675781 7.21996094 -0.84101562 8.00242187 -1.11328125 8.80859375 C-2 11 -2 11 -4 14 C-4.99 14.33 -5.98 14.66 -7 15 C-7.77536547 16.73302357 -7.77536547 16.73302357 -8.25 18.875 C-10.25548082 25.55636122 -14.05430443 32.05430443 -19 37 C-19.71687705 38.72702198 -20.43329445 40.45424132 -21.14453125 42.18359375 C-22.70928229 45.50601035 -24.69064505 48.34532252 -28 50 C-29.12224855 51.88013106 -29.12224855 51.88013106 -30.125 54.0625 C-30.47820313 54.79597656 -30.83140625 55.52945313 -31.1953125 56.28515625 C-31.46085938 56.85105469 -31.72640625 57.41695312 -32 58 C-32.66 58 -33.32 58 -34 58 C-32.71481527 54.60022498 -31.24249109 51.52308211 -29.3828125 48.40234375 C-28.86412598 47.52811768 -28.34543945 46.6538916 -27.81103516 45.75317383 C-27.25464355 44.82400146 -26.69825195 43.8948291 -26.125 42.9375 C-25.26140869 41.48670044 -25.26140869 41.48670044 -24.38037109 40.0065918 C-22.59044797 37.00227016 -20.79533779 34.00108823 -19 31 C-17.90604932 29.16418207 -16.81229159 27.32824914 -15.71875 25.4921875 C-10.60088611 16.91486439 -5.45225072 8.37035674 0 0 Z " fill="#D31F1D" transform="translate(951,679)"/>
<path d="M0 0 C0.495 0.99 0.495 0.99 1 2 C0.00769103 3.67125722 -0.99490786 5.33639922 -2 7 C-3.10025104 9.578079 -4.12163561 12.17880213 -5.1328125 14.79296875 C-6 17 -6 17 -7 19 C-7.99 19.33 -8.98 19.66 -10 20 C-11.36363256 22.07942564 -11.36363256 22.07942564 -12.5 24.625 C-12.93054688 25.52863281 -13.36109375 26.43226563 -13.8046875 27.36328125 C-14.7745539 29.50269242 -15.71655952 31.64658666 -16.625 33.8125 C-17.8885072 36.74153943 -19.17601635 39.38297999 -21 42 C-21.66 42 -22.32 42 -23 42 C-23.103125 42.721875 -23.20625 43.44375 -23.3125 44.1875 C-24.06793947 47.27793421 -25.15531315 49.41743841 -27 52 C-27.66 52 -28.32 52 -29 52 C-29.061875 52.5775 -29.12375 53.155 -29.1875 53.75 C-30.32027301 56.88690987 -32.34197595 58.09167504 -35 60 C-33.38056992 55.56787557 -31.19796877 51.58906146 -28.875 47.5 C-28.52179687 46.86835937 -28.16859375 46.23671875 -27.8046875 45.5859375 C-24.38970846 39.53857879 -20.73240712 33.64318504 -17.07623291 27.73956299 C-15.28487045 24.84410439 -13.50224863 21.94327518 -11.71875 19.04296875 C-11.01566692 17.90036483 -10.31254208 16.7577866 -9.609375 15.61523438 C-9.26326172 15.05280029 -8.91714844 14.49036621 -8.56054688 13.91088867 C-5.70703125 9.27392578 -2.85351562 4.63696289 0 0 Z " fill="#D51B1A" transform="translate(1018,567)"/>
<path d="M0 0 C3.03043412 2.6400101 4.68733929 5.75742637 6.625 9.25 C7.33190568 10.51121792 8.04029229 11.7716067 8.75 13.03125 C9.11738281 13.68351563 9.48476562 14.33578125 9.86328125 15.0078125 C11.73349146 18.28550049 13.67703402 21.51810984 15.625 24.75 C16.00011719 25.37511475 16.37523437 26.00022949 16.76171875 26.64428711 C18.46474028 29.47705428 20.18465632 32.29522674 21.9375 35.09765625 C22.494375 35.99355469 23.05125 36.88945313 23.625 37.8125 C24.35589844 38.96685547 24.35589844 38.96685547 25.1015625 40.14453125 C25.39804688 40.75683594 25.69453125 41.36914062 26 42 C25.67 42.66 25.34 43.32 25 44 C21 38.25 21 38.25 21 36 C20.071875 35.7525 20.071875 35.7525 19.125 35.5 C16.55152839 33.6834318 16.59572601 32.98946142 16 30 C15.896875 29.29875 15.79375 28.5975 15.6875 27.875 C14.74457281 25.30338039 13.41127917 25.16991693 11 24 C9.515625 21.9765625 9.515625 21.9765625 8.25 19.625 C7.82203125 18.85414063 7.3940625 18.08328125 6.953125 17.2890625 C6 15 6 15 6 11 C4.68 10.34 3.36 9.68 2 9 C2 8.01 2 7.02 2 6 C-1.11785113 6.64644661 -1.11785113 6.64644661 -2 9 C-2.66 9 -3.32 9 -4 9 C-2.94124926 5.59687262 -1.99097846 2.98646769 0 0 Z " fill="#CB201F" transform="translate(1023,558)"/>
<path d="M0 0 C0.66 0 1.32 0 2 0 C0.40731015 4.33842079 -1.72649216 8.30284999 -4 12.3125 C-4.39227783 13.00746582 -4.78455566 13.70243164 -5.1887207 14.41845703 C-8.84596883 20.83794881 -12.7420727 27.09582847 -16.6953125 33.3359375 C-19.20149132 37.29598835 -21.58838853 41.32221028 -23.94140625 45.375 C-24.29074219 45.91125 -24.64007812 46.4475 -25 47 C-25.33 47 -25.66 47 -26 47 C-26.20086443 43.28400809 -26.1519437 42.22791555 -24 39 C-23.34 39 -22.68 39 -22 39 C-22 38.01 -22 37.02 -22 36 C-21.34 36 -20.68 36 -20 36 C-20 34.68 -20 33.36 -20 32 C-19.34 32 -18.68 32 -18 32 C-18 31.01 -18 30.02 -18 29 C-17.34 29 -16.68 29 -16 29 C-16 28.01 -16 27.02 -16 26 C-15.34 26 -14.68 26 -14 26 C-14 25.01 -14 24.02 -14 23 C-13.34 23 -12.68 23 -12 23 C-11.67 21.02 -11.34 19.04 -11 17 C-10.34 17 -9.68 17 -9 17 C-8.731875 16.030625 -8.46375 15.06125 -8.1875 14.0625 C-7.795625 13.051875 -7.40375 12.04125 -7 11 C-6.01 10.67 -5.02 10.34 -4 10 C-4 8.68 -4 7.36 -4 6 C-3.34 6 -2.68 6 -2 6 C-1.855625 5.195625 -1.71125 4.39125 -1.5625 3.5625 C-1 1 -1 1 0 0 Z " fill="#FEDAD8" transform="translate(955,668)"/>
<path d="M0 0 C0.66 0 1.32 0 2 0 C-2.86216974 13.08673547 -11.69461739 25.16511855 -19 37 C-19.33 35.68 -19.66 34.36 -20 33 C-19.34 33 -18.68 33 -18 33 C-18 32.01 -18 31.02 -18 30 C-17.34 30 -16.68 30 -16 30 C-16 28.68 -16 27.36 -16 26 C-15.34 26 -14.68 26 -14 26 C-14 25.01 -14 24.02 -14 23 C-13.34 23 -12.68 23 -12 23 C-12 21.68 -12 20.36 -12 19 C-11.34 19 -10.68 19 -10 19 C-10 18.01 -10 17.02 -10 16 C-9.34 16 -8.68 16 -8 16 C-8 14.68 -8 13.36 -8 12 C-7.34 12 -6.68 12 -6 12 C-6 11.34 -6 10.68 -6 10 C-5.34 10 -4.68 10 -4 10 C-4 8.68 -4 7.36 -4 6 C-3.34 6 -2.68 6 -2 6 C-2 4.68 -2 3.36 -2 2 C-1.34 2 -0.68 2 0 2 C0 1.34 0 0.68 0 0 Z " fill="#FED5D4" transform="translate(985,618)"/>
<path d="M0 0 C0.33 0 0.66 0 1 0 C0.29677426 7.17290254 -2.50980011 11.40470717 -6.5 17.25 C-7.0878125 18.12140625 -7.675625 18.9928125 -8.28125 19.890625 C-10 22 -10 22 -13 23 C-11.73450827 19.6487836 -10.29812102 16.63101496 -8.43359375 13.57421875 C-7.94826172 12.77822266 -7.46292969 11.98222656 -6.96289062 11.16210938 C-6.45951172 10.34548828 -5.95613281 9.52886719 -5.4375 8.6875 C-4.93025391 7.85154297 -4.42300781 7.01558594 -3.90039062 6.15429688 C-1.09345099 1.57573356 -1.09345099 1.57573356 0 0 Z " fill="#D71A19" transform="translate(884,790)"/>
<path d="M0 0 C0.33 0.66 0.66 1.32 1 2 C0.00769103 3.67125722 -0.99490786 5.33639922 -2 7 C-3.10025104 9.578079 -4.12163561 12.17880213 -5.1328125 14.79296875 C-6 17 -6 17 -7 19 C-7.99 19.33 -8.98 19.66 -10 20 C-11.35447807 22.29111691 -11.35447807 22.29111691 -12.5 25 C-13.71875 27.75 -13.71875 27.75 -15 30 C-15.99 30.33 -16.98 30.66 -18 31 C-16.52804325 26.95375443 -14.57320129 23.47904653 -12.3046875 19.82421875 C-11.95238068 19.25419632 -11.60007385 18.68417389 -11.23709106 18.09687805 C-10.120067 16.29144534 -8.99763533 14.48944771 -7.875 12.6875 C-7.11292044 11.45790584 -6.35119794 10.22809031 -5.58984375 8.99804688 C-3.73068637 5.99612576 -1.86666662 2.99725895 0 0 Z " fill="#CA2525" transform="translate(1018,567)"/>
<path d="M0 0 C0.66 0 1.32 0 2 0 C2 0.99 2 1.98 2 3 C2.66 3 3.32 3 4 3 C4.81567174 4.43570266 5.62742093 5.87363434 6.4375 7.3125 C6.88996094 8.11300781 7.34242187 8.91351562 7.80859375 9.73828125 C9 12 9 12 10 15 C10.66 15 11.32 15 12 15 C12.33 16.98 12.66 18.96 13 21 C13.66 21 14.32 21 15 21 C15.33 22.65 15.66 24.3 16 26 C16.66 26 17.32 26 18 26 C18.66 28.31 19.32 30.62 20 33 C16.98042143 30.33330554 15.0478683 27.06624759 12.98828125 23.65234375 C12.61519333 23.03984268 12.24210541 22.42734161 11.85771179 21.79627991 C11.073185 20.50569237 10.29082277 19.21378685 9.51049805 17.9206543 C8.31232775 15.93721486 7.10490158 13.95963101 5.89648438 11.98242188 C5.13485514 10.72690296 4.37376839 9.47105477 3.61328125 8.21484375 C3.25083817 7.62211166 2.88839508 7.02937958 2.51496887 6.41868591 C0 2.22987962 0 2.22987962 0 0 Z " fill="#FDCECD" transform="translate(1159,782)"/>
<path d="M0 0 C1.98 0.99 1.98 0.99 4 2 C4 3.32 4 4.64 4 6 C4.99 6.33 5.98 6.66 7 7 C7.6875 9.0625 7.6875 9.0625 8 11 C8.66 11 9.32 11 10 11 C10 12.32 10 13.64 10 15 C10.66 15 11.32 15 12 15 C12.28875 15.804375 12.5775 16.60875 12.875 17.4375 C13.73262568 20.1326468 13.73262568 20.1326468 16 21 C16 22.65 16 24.3 16 26 C12.50329197 22.84671865 10.251249 19.33394054 8 15.25 C7.65259766 14.63108887 7.30519531 14.01217773 6.94726562 13.37451172 C4.49550075 8.9781247 2.17791969 4.53733269 0 0 Z " fill="#FDD3D2" transform="translate(1091,670)"/>
<path d="M0 0 C3.77019046 4.43604749 6.77562679 9.23925275 9.8125 14.1875 C10.5849707 15.41629883 10.5849707 15.41629883 11.37304688 16.66992188 C11.85451172 17.45302734 12.33597656 18.23613281 12.83203125 19.04296875 C13.27264893 19.75477295 13.7132666 20.46657715 14.16723633 21.19995117 C14.44204834 21.79396729 14.71686035 22.3879834 15 23 C14.67 23.66 14.34 24.32 14 25 C13.4225 24.0925 12.845 23.185 12.25 22.25 C10.18913408 19.06615034 10.18913408 19.06615034 7.9375 16.9375 C5.79611151 14.79611151 4.40757657 12.67439549 3 10 C3 9.34 3 8.68 3 8 C2.34 8 1.68 8 1 8 C0.67 5.36 0.34 2.72 0 0 Z " fill="#CB2322" transform="translate(1101,688)"/>
<path d="M0 0 C0.92361355 2.50452264 1.14843953 3.62720666 0.14453125 6.1484375 C-0.29503906 6.88320313 -0.73460937 7.61796875 -1.1875 8.375 C-1.6515625 9.15488281 -2.115625 9.93476562 -2.59375 10.73828125 C-3.28984375 11.85783203 -3.28984375 11.85783203 -4 13 C-4.3815625 13.63292969 -4.763125 14.26585937 -5.15625 14.91796875 C-6.0372507 16.32289789 -7.01048254 17.66926962 -8 19 C-8.66 19 -9.32 19 -10 19 C-10.33 19.99 -10.66 20.98 -11 22 C-11.33 21.34 -11.66 20.68 -12 20 C-11.22729492 18.26000977 -11.22729492 18.26000977 -9.98046875 16.19140625 C-9.53509766 15.44439453 -9.08972656 14.69738281 -8.63085938 13.92773438 C-8.15455078 13.14720703 -7.67824219 12.36667969 -7.1875 11.5625 C-6.72279297 10.78583984 -6.25808594 10.00917969 -5.77929688 9.20898438 C-3.90945162 6.09436409 -2.01554398 3.02331597 0 0 Z " fill="#CF2524" transform="translate(982,627)"/>
<path d="M0 0 C1 2 1 2 0.3125 5.3125 C-1.18546207 9.52106009 -2.88621696 12.94310848 -7 15 C-7.33 15.99 -7.66 16.98 -8 18 C-8.66 18 -9.32 18 -10 18 C-8.47146065 13.72813475 -6.28490519 10.00673137 -3.875 6.1875 C-3.50246094 5.59001953 -3.12992188 4.99253906 -2.74609375 4.37695312 C-1.8342952 2.91573749 -0.91764024 1.45755415 0 0 Z " fill="#D02120" transform="translate(969,649)"/>
<path d="M0 0 C0.33 0.66 0.66 1.32 1 2 C0 3.66666667 -1 5.33333333 -2 7 C-2.309375 8.155 -2.61875 9.31 -2.9375 10.5 C-4.06295707 14.207388 -5.31801675 16.23674453 -8 19 C-8.99 19.33 -9.98 19.66 -11 20 C-9.36047417 15.3606824 -6.93128948 11.36144142 -4.375 7.1875 C-3.95476563 6.49462891 -3.53453125 5.80175781 -3.1015625 5.08789062 C-2.0710533 3.38989252 -1.03598319 1.69466386 0 0 Z " fill="#CF2625" transform="translate(916,737)"/>
<path d="M0 0 C0.66 0 1.32 0 2 0 C0.36047417 4.6393176 -2.06871052 8.63855858 -4.625 12.8125 C-5.04523437 13.50537109 -5.46546875 14.19824219 -5.8984375 14.91210938 C-6.9289467 16.61010748 -7.96401681 18.30533614 -9 20 C-9.33 18.68 -9.66 17.36 -10 16 C-9.34 16 -8.68 16 -8 16 C-7.938125 15.34 -7.87625 14.68 -7.8125 14 C-6.69621505 9.8783325 -4.66238434 6.34249498 -2 3 C-1.34 3 -0.68 3 0 3 C0 2.01 0 1.02 0 0 Z " fill="#FDD5D4" transform="translate(895,768)"/>
<path d="M0 0 C1.89453125 0.2578125 1.89453125 0.2578125 4 1 C5.01171875 2.7421875 5.01171875 2.7421875 5.6875 4.875 C5.91824219 5.57367187 6.14898438 6.27234375 6.38671875 6.9921875 C6.58910156 7.65476562 6.79148437 8.31734375 7 9 C7.33 9.99 7.66 10.98 8 12 C8.66 12 9.32 12 10 12 C10.33 14.31 10.66 16.62 11 19 C8.03073619 15.44608026 5.57681464 11.81482005 3.25 7.8125 C2.63640625 6.76707031 2.0228125 5.72164062 1.390625 4.64453125 C0 2 0 2 0 0 Z " fill="#FDCFCF" transform="translate(1139,749)"/>
<path d="M0 0 C0.66 0 1.32 0 2 0 C0.35800988 4.62090116 -2.0340968 8.63843785 -4.5625 12.8125 C-4.97435547 13.50537109 -5.38621094 14.19824219 -5.81054688 14.91210938 C-6.84286827 16.62701317 -7.91770235 18.31619055 -9 20 C-9.33 20 -9.66 20 -10 20 C-10 18.35 -10 16.7 -10 15 C-9.34 15 -8.68 15 -8 15 C-8 14.34 -8 13.68 -8 13 C-7.34 13 -6.68 13 -6 13 C-6 11.68 -6 10.36 -6 9 C-5.34 9 -4.68 9 -4 9 C-3.34 6.69 -2.68 4.38 -2 2 C-1.34 2 -0.68 2 0 2 C0 1.34 0 0.68 0 0 Z " fill="#FDD1D0" transform="translate(907,748)"/>
<path d="M0 0 C0.66 0.33 1.32 0.66 2 1 C-1.63 6.94 -5.26 12.88 -9 19 C-9.33 17.68 -9.66 16.36 -10 15 C-9.34 15 -8.68 15 -8 15 C-7.7834375 13.824375 -7.7834375 13.824375 -7.5625 12.625 C-7 10 -7 10 -6 8 C-5.34 8 -4.68 8 -4 8 C-4 7.01 -4 6.02 -4 5 C-3.34 5 -2.68 5 -2 5 C-2 3.68 -2 2.36 -2 1 C-1.34 0.67 -0.68 0.34 0 0 Z " fill="#FED7D5" transform="translate(919,729)"/>
<path d="M0 0 C9 10.66666667 9 10.66666667 9 15 C7.171875 14.80078125 7.171875 14.80078125 5 14 C3.515625 11.85546875 3.515625 11.85546875 2.25 9.1875 C1.82203125 8.31480469 1.3940625 7.44210937 0.953125 6.54296875 C0 4 0 4 0 0 Z " fill="#CF2221" transform="translate(1121,721)"/>
<path d="M0 0 C0.66 0 1.32 0 2 0 C2.81837442 1.41328129 3.62946219 2.83078346 4.4375 4.25 C4.88996094 5.03890625 5.34242187 5.8278125 5.80859375 6.640625 C6.89311602 8.78833468 7.53148716 10.65205061 8 13 C8.66 13 9.32 13 10 13 C12.10865385 16.47307692 12.10865385 16.47307692 11.55859375 19.140625 C11.28208984 20.06101562 11.28208984 20.06101562 11 21 C10.45730469 20.04738281 9.91460938 19.09476563 9.35546875 18.11328125 C8.63284161 16.84633756 7.91018373 15.57941141 7.1875 14.3125 C6.83107422 13.68666016 6.47464844 13.06082031 6.10742188 12.41601562 C5.75615234 11.80048828 5.40488281 11.18496094 5.04296875 10.55078125 C4.52549072 9.64320068 4.52549072 9.64320068 3.99755859 8.71728516 C3.10670309 7.1836881 2.17509419 5.67393189 1.23828125 4.16796875 C0 2 0 2 0 0 Z " fill="#FCCCCB" transform="translate(1035,576)"/>
<path d="M0 0 C2.37990422 3.10709718 4.59750518 6.29373204 6.75 9.5625 C7.38421875 10.51253906 8.0184375 11.46257813 8.671875 12.44140625 C9.11015625 13.28574219 9.5484375 14.13007812 10 15 C9.67 15.99 9.34 16.98 9 18 C6.08772731 14.71195019 4.50298788 12.40114397 4 8 C3.01 8 2.02 8 1 8 C0.67 5.36 0.34 2.72 0 0 Z " fill="#CA2121" transform="translate(1091,671)"/>
<path d="M0 0 C0.33 1.32 0.66 2.64 1 4 C0.34 4 -0.32 4 -1 4 C-1.33 6.64 -1.66 9.28 -2 12 C1.96 12 5.92 12 10 12 C10 12.33 10 12.66 10 13 C5.05 13 0.1 13 -5 13 C-2.25 3.375 -2.25 3.375 0 0 Z " fill="#D61716" transform="translate(870,813)"/>
<path d="M0 0 C3.92491136 4.52874388 7.37459686 9.60598991 10 15 C9.67 15.66 9.34 16.32 9 17 C5.02814384 12.894534 2.29123499 9.97031739 2 4 C1.34 4 0.68 4 0 4 C0 2.68 0 1.36 0 0 Z " fill="#C92523" transform="translate(1065,628)"/>
<path d="M0 0 C1.00271664 3.15139514 1.05537349 3.8542803 -0.1875 7.125 C-2.0624935 10.09912762 -2.9121336 10.66192456 -6 12 C-6.33 12.99 -6.66 13.98 -7 15 C-7.33 14.34 -7.66 13.68 -8 13 C-6.75506252 10.71025684 -5.47358472 8.55809966 -4.0625 6.375 C-3.67642578 5.76398437 -3.29035156 5.15296875 -2.89257812 4.5234375 C-1.93553674 3.0110758 -0.96867189 1.50493883 0 0 Z " fill="#CE2526" transform="translate(904,757)"/>
<path d="M0 0 C0.66 0 1.32 0 2 0 C0.56691865 3.95906817 -1.33141949 7.28718181 -3.625 10.8125 C-4.57246094 12.27623047 -4.57246094 12.27623047 -5.5390625 13.76953125 C-6.02117188 14.50558594 -6.50328125 15.24164062 -7 16 C-8 13 -8 13 -6.5625 9.8125 C-6.046875 8.884375 -5.53125 7.95625 -5 7 C-4.34 7 -3.68 7 -3 7 C-2.67 5.35 -2.34 3.7 -2 2 C-1.34 2 -0.68 2 0 2 C0 1.34 0 0.68 0 0 Z " fill="#FDD0CF" transform="translate(1011,575)"/>
<path d="M0 0 C0.66 0 1.32 0 2 0 C0.23570801 4.97209562 -2.3939166 9.43438061 -5 14 C-5.33 14 -5.66 14 -6 14 C-6.20140476 10.37471432 -5.85776765 8.13498292 -4 5 C-3.34 5 -2.68 5 -2 5 C-2 4.01 -2 3.02 -2 2 C-1.34 2 -0.68 2 0 2 C0 1.34 0 0.68 0 0 Z " fill="#FDD2D1" transform="translate(869,811)"/>
<path d="M0 0 C3.92491136 4.52874388 7.37459686 9.60598991 10 15 C9.67 15.66 9.34 16.32 9 17 C8.67 16.01 8.34 15.02 8 14 C7.34 14 6.68 14 6 14 C6 13.34 6 12.68 6 12 C5.34 12 4.68 12 4 12 C3.34 9.36 2.68 6.72 2 4 C1.34 4 0.68 4 0 4 C0 2.68 0 1.36 0 0 Z " fill="#C92B2B" transform="translate(1159,784)"/>
<path d="M0 0 C2.50037734 2.17424117 3.43628586 3.73045798 4 7 C2.35 7 0.7 7 -1 7 C-1.33 7.66 -1.66 8.32 -2 9 C-2.66 9 -3.32 9 -4 9 C-2.94124926 5.59687262 -1.99097846 2.98646769 0 0 Z " fill="#C03030" transform="translate(1023,558)"/>
<path d="M0 0 C4.5565527 3.71274665 6.57400393 8.79007402 9 14 C8.34 14 7.68 14 7 14 C7 13.34 7 12.68 7 12 C6.37609375 11.77570312 5.7521875 11.55140625 5.109375 11.3203125 C2.27668841 9.54726052 2.06744557 8.06303773 1.25 4.875 C0.88648438 3.50988281 0.88648438 3.50988281 0.515625 2.1171875 C0.34546875 1.41851563 0.1753125 0.71984375 0 0 Z " fill="#C92927" transform="translate(1049,602)"/>
<path d="M0 0 C0.66 0 1.32 0 2 0 C5 5.75 5 5.75 5 8 C5.66 8 6.32 8 7 8 C7.12375 8.804375 7.2475 9.60875 7.375 10.4375 C7.684375 11.7059375 7.684375 11.7059375 8 13 C8.66 13.33 9.32 13.66 10 14 C9.01 14 8.02 14 7 14 C5.17578125 11.4453125 5.17578125 11.4453125 3.3125 8.125 C2.68988281 7.03445313 2.06726562 5.94390625 1.42578125 4.8203125 C0 2 0 2 0 0 Z " fill="#FDCFCD" transform="translate(1107,696)"/>
<path d="M0 0 C0.66 0 1.32 0 2 0 C0.23570801 4.97209562 -2.3939166 9.43438061 -5 14 C-5.33 12.68 -5.66 11.36 -6 10 C-5.34 10 -4.68 10 -4 10 C-4 8.68 -4 7.36 -4 6 C-3.34 6 -2.68 6 -2 6 C-1.855625 5.195625 -1.71125 4.39125 -1.5625 3.5625 C-1 1 -1 1 0 0 Z " fill="#FDD1CF" transform="translate(955,668)"/>
<path d="M0 0 C0.33 0.66 0.66 1.32 1 2 C-0.07674702 4.28258633 -1.19546116 6.4356434 -2.4375 8.625 C-2.77587891 9.23601563 -3.11425781 9.84703125 -3.46289062 10.4765625 C-4.30146192 11.988353 -5.14982577 13.49470399 -6 15 C-6.66 15 -7.32 15 -8 15 C-6.62712658 11.30123909 -4.93644547 8.0485524 -2.875 4.6875 C-2.33617187 3.80449219 -1.79734375 2.92148437 -1.2421875 2.01171875 C-0.83226562 1.34785156 -0.42234375 0.68398438 0 0 Z " fill="#C92F2D" transform="translate(925,722)"/>
<path d="M0 0 C0.99 0 1.98 0 3 0 C1.35821735 4.77609498 -1.26546702 8.79382904 -4 13 C-4.33 11.68 -4.66 10.36 -5 9 C-4.34 9 -3.68 9 -3 9 C-3 8.01 -3 7.02 -3 6 C-2.34 6 -1.68 6 -1 6 C-0.67 4.02 -0.34 2.04 0 0 Z " fill="#FED5D3" transform="translate(926,715)"/>
<path d="M0 0 C0.66 0 1.32 0 2 0 C0.23570801 4.97209562 -2.3939166 9.43438061 -5 14 C-5.33 12.68 -5.66 11.36 -6 10 C-5.34 10 -4.68 10 -4 10 C-4 8.68 -4 7.36 -4 6 C-3.34 6 -2.68 6 -2 6 C-2 4.68 -2 3.36 -2 2 C-1.34 2 -0.68 2 0 2 C0 1.34 0 0.68 0 0 Z " fill="#FCCDCC" transform="translate(985,618)"/>
<path d="M0 0 C0.99 0 1.98 0 3 0 C3 2 3 2 0.8125 4.3125 C-0.115625 5.199375 -1.04375 6.08625 -2 7 C-2.928125 7.928125 -3.85625 8.85625 -4.8125 9.8125 C-5.534375 10.534375 -6.25625 11.25625 -7 12 C-5.80100302 8.9168649 -4.52299523 5.93720508 -3 3 C-2.34 3 -1.68 3 -1 3 C-0.67 2.01 -0.34 1.02 0 0 Z " fill="#E40808" transform="translate(1022,564)"/>
<path d="M0 0 C0.99 0.33 1.98 0.66 3 1 C3.70211894 2.65204456 4.36971413 4.31923769 5 6 C5.66 6.33 6.32 6.66 7 7 C7.40729228 9.32156597 7.74438677 11.6568787 8 14 C4.17398376 9.76405345 2.13637096 5.21592698 0 0 Z " fill="#FBCECC" transform="translate(1024,558)"/>
<path d="M0 0 C2.63978826 3.18595135 5.10498388 6.30970546 7 10 C6.67 10.66 6.34 11.32 6 12 C5.67 11.01 5.34 10.02 5 9 C4.34 8.7525 3.68 8.505 3 8.25 C2.34 7.8375 1.68 7.425 1 7 C0.25 3.375 0.25 3.375 0 0 Z " fill="#CB2625" transform="translate(1080,653)"/>
<path d="M0 0 C1.98 0.99 1.98 0.99 4 2 C4 3.32 4 4.64 4 6 C4.99 6.33 5.98 6.66 7 7 C7 8.65 7 10.3 7 12 C3.6497537 8.18765077 1.83025211 4.66714289 0 0 Z " fill="#FBCAC8" transform="translate(1091,670)"/>
<path d="M0 0 C0.33 0.66 0.66 1.32 1 2 C0.04060332 3.69036558 -0.96642853 5.35394174 -2 7 C-2.33 7.9075 -2.66 8.815 -3 9.75 C-3.33 10.4925 -3.66 11.235 -4 12 C-4.99 12.33 -5.98 12.66 -7 13 C-5.35821735 8.22390502 -2.73453298 4.20617096 0 0 Z " fill="#C93030" transform="translate(878,800)"/>
<path d="M0 0 C2.74277578 3.19990508 4.6302836 6.00499382 6 10 C3 8.375 3 8.375 0 6 C-0.375 2.75 -0.375 2.75 0 0 Z " fill="#CA2423" transform="translate(1130,736)"/>
<path d="M0 0 C0.66 0.33 1.32 0.66 2 1 C-0.97 5.95 -0.97 5.95 -4 11 C-5 8 -5 8 -4.00390625 5.95703125 C-3.52824219 5.24933594 -3.05257812 4.54164063 -2.5625 3.8125 C-2.08941406 3.09707031 -1.61632812 2.38164063 -1.12890625 1.64453125 C-0.75636719 1.10183594 -0.38382813 0.55914063 0 0 Z " fill="#E30809" transform="translate(1008,586)"/>
<path d="M0 0 C0.66 0 1.32 0 2 0 C0.6302836 3.99500618 -1.25722422 6.80009492 -4 10 C-4 8.35 -4 6.7 -4 5 C-3.34 5 -2.68 5 -2 5 C-2 4.01 -2 3.02 -2 2 C-1.34 2 -0.68 2 0 2 C0 1.34 0 0.68 0 0 Z " fill="#FDD4D3" transform="translate(877,798)"/>
<path d="M0 0 C0.33 0.66 0.66 1.32 1 2 C0.04060332 3.69036558 -0.96642853 5.35394174 -2 7 C-2.69822617 8.65369357 -3.37498605 10.31727014 -4 12 C-4.66 12 -5.32 12 -6 12 C-4.68139111 7.38486888 -2.78644563 3.90102388 0 0 Z " fill="#C72C2A" transform="translate(958,667)"/>
<path d="M0 0 C0.66 0 1.32 0 2 0 C0.6302836 3.99500618 -1.25722422 6.80009492 -4 10 C-3.47731534 7.23723823 -2.89130413 4.6739124 -2 2 C-1.34 2 -0.68 2 0 2 C0 1.34 0 0.68 0 0 Z " fill="#FCD1D0" transform="translate(997,598)"/>
<path d="M0 0 C2.94721162 2.74395564 5.19168608 5.38337216 7 9 C6.67 9.66 6.34 10.32 6 11 C3 7.25 3 7.25 3 5 C2.01 4.67 1.02 4.34 0 4 C0 2.68 0 1.36 0 0 Z " fill="#C82D2D" transform="translate(1169,801)"/>
<path d="M0 0 C1.32 0.33 2.64 0.66 4 1 C4 2.32 4 3.64 4 5 C4.66 5 5.32 5 6 5 C6 6.65 6 8.3 6 10 C3.47650757 6.87567603 1.72743854 3.61939504 0 0 Z " fill="#FCD2D1" transform="translate(1127,730)"/>
<path d="M0 0 C0.66 0 1.32 0 2 0 C0.6302836 3.99500618 -1.25722422 6.80009492 -4 10 C-4 8.68 -4 7.36 -4 6 C-3.34 6 -2.68 6 -2 6 C-2 4.68 -2 3.36 -2 2 C-1.34 2 -0.68 2 0 2 C0 1.34 0 0.68 0 0 Z " fill="#FCCDCC" transform="translate(991,608)"/>
<path d="M0 0 C0.66 0 1.32 0 2 0 C2 0.66 2 1.32 2 2 C2.99 2.33 3.98 2.66 5 3 C5.33 5.31 5.66 7.62 6 10 C3.47650757 6.87567603 1.72743854 3.61939504 0 0 Z " fill="#FDCECB" transform="translate(1121,720)"/>
<path d="M0 0 C4 2 4 2 5.3125 3.9375 C6 6 6 6 5 9 C3.35 6.03 1.7 3.06 0 0 Z " fill="#FECFCE" transform="translate(1153,773)"/>
<path d="M0 0 C1.32 0.33 2.64 0.66 4 1 C4.33 2.65 4.66 4.3 5 6 C3.0625 5.25 3.0625 5.25 1 4 C0.25 1.875 0.25 1.875 0 0 Z " fill="#FDDBDA" transform="translate(1139,749)"/>
<path d="M0 0 C0.66 1.32 1.32 2.64 2 4 C-0.97 6.475 -0.97 6.475 -4 9 C-2.80100302 5.9168649 -1.52299523 2.93720508 0 0 Z " fill="#CB2727" transform="translate(987,618)"/>
</svg>
